<?xml version="1.0" encoding="utf-8"?>
<!-- Generator: Adobe Illustrator 19.2.1, SVG Export Plug-In . SVG Version: 6.00 Build 0)  -->
<svg version="1.1" id="layer" xmlns="http://www.w3.org/2000/svg" xmlns:xlink="http://www.w3.org/1999/xlink" x="0px" y="0px"
	 viewBox="0 0 652 652" style="enable-background:new 0 0 652 652;" xml:space="preserve">
<style type="text/css">
	.st0{fill:#00AAC8;}
	.st1{fill:#002E6E;}
</style>
<g>
	<path class="st0" d="M509.5,84.4c0-7.1,5.7-12.8,12.8-12.8c7.1,0,12.8,5.8,12.8,12.8v11.4c0,7.1-5.7,12.8-12.8,12.8
		c-7.1,0-12.8-5.7-12.8-12.8V84.4z"/>
	<path class="st0" d="M597.3,120.7c-2.2-6.8-9.4-10.4-16.2-8.2l-58.9,19.2l-58.9-19.2c-6.7-2.2-14,1.4-16.2,8.2
		c-2.2,6.7,1.5,14,8.2,16.1l46.1,15l-28.4,39c-4.2,5.7-2.9,13.7,2.8,17.9c5.8,4.2,13.8,2.9,17.9-2.8l28.4-39.1l28.4,39.1
		c4.2,5.7,12.2,7,17.9,2.8c5.7-4.2,7-12.2,2.8-17.9l-28.3-39.1l45.9-15C595.8,134.7,599.5,127.4,597.3,120.7"/>
	<path class="st0" d="M383.6,114.6c0-5.4,4.4-9.8,9.7-9.8c5.4,0,9.8,4.4,9.8,9.8v8.6c0,5.4-4.3,9.8-9.8,9.8c-5.4,0-9.7-4.4-9.7-9.8
		V114.6z"/>
	<path class="st0" d="M450.5,142.3c-1.7-5.2-7.2-7.9-12.3-6.3l-44.8,14.6L348.6,136c-5.1-1.7-10.6,1.1-12.3,6.3
		c-1.7,5.1,1.1,10.6,6.2,12.3l35.1,11.5L356,195.7c-3.2,4.4-2.2,10.5,2.2,13.6c4.4,3.2,10.5,2.2,13.6-2.1l21.6-29.8l21.6,29.8
		c3.2,4.3,9.3,5.3,13.7,2.1c4.4-3.2,5.3-9.3,2.1-13.6L409.3,166l35-11.4C449.4,152.9,452.2,147.4,450.5,142.3"/>
	<path class="st0" d="M289.9,139.2c0-4,3.3-7.3,7.3-7.3c4.1,0,7.3,3.3,7.3,7.3v6.4c0,4-3.2,7.3-7.3,7.3c-4,0-7.3-3.3-7.3-7.3V139.2z
		"/>
	<path class="st0" d="M339.8,159.8c-1.3-3.8-5.3-5.9-9.2-4.7L297.2,166l-33.4-10.9c-3.8-1.3-7.9,0.8-9.2,4.7
		c-1.3,3.8,0.8,7.9,4.7,9.2l26.2,8.6l-16.1,22.2c-2.4,3.3-1.6,7.8,1.6,10.2c3.3,2.4,7.8,1.6,10.2-1.6l16.1-22.2l16.1,22.2
		c2.4,3.2,6.9,4,10.2,1.6c3.3-2.4,4-6.9,1.6-10.2L309,177.5l26.1-8.5C338.9,167.7,341,163.6,339.8,159.8"/>
	<path class="st1" d="M93.5,369.4c-44.3,0-68.1-29.1-68.1-82.8c0-53.2,24.8-82.8,68.6-82.8c43.6,0,67.9,29.8,67.9,83
		C161.9,340.2,137.8,369.4,93.5,369.4 M94.3,223.1c-27.9,0-42.4,21.4-42.4,63.5c0,20.7,4.1,39.7,11.1,49.6
		c6.3,9.1,17.6,14.2,31,14.2c27.9,0,41.4-20.5,41.4-63.5C135.4,244,122.2,223.1,94.3,223.1"/>
	<path class="st1" d="M249.4,211.3c-2.2-0.5-9.9-1.4-19.7-1.4c-12.3,0-15.4,4.8-15.4,20.9v21.9h31.8v16.1h-31.8v97.7H191v-97.7h-20
		v-13.7l20-2.6v-18.8c0-16.8,1.2-22.9,5.5-29.1c5.5-8.2,14.2-12.3,26.2-12.3c12,0,25.5,3.4,29.1,4.3L249.4,211.3z"/>
	<path class="st1" d="M286.5,368.9c-11.6,0-21.7-1.7-36.1-5.3l3.9-15.9c11.6,2.6,20.2,3.6,28.2,3.6c15.9,0,24.1-5.8,24.1-16.4
		c0-8.9-3.4-12.5-19-16.8c-20.9-5.8-36.1-12.8-36.1-33.2c0-21.9,15.2-34.6,40.2-34.6c9.4,0,20.5,1.9,33,6l-3.4,14.9
		c-7.9-1.7-18.3-3.6-26.7-3.6c-12.3,0-19.5,5.1-19.5,14.7c0,24.1,55.6,8.4,55.6,49.1C330.5,355.2,314.4,368.9,286.5,368.9"/>
	<path class="st1" d="M377.7,369.1c-11.1,0-19.2-4.6-23.3-12.5c-2.6-5.1-3.4-10.8-3.4-26.2v-61.6h-19.3v-13l19.3-2.4v-31.5h23.6
		v30.8h31.3v16.1h-31.3v54.9c0,19.2,0.2,19.7,1.9,22.6c1.7,2.9,5.1,4.3,10.1,4.3c5.5,0,10.8-1,20-3.4l3.6,14.4
		C396.4,366.9,387.1,369.1,377.7,369.1"/>
	<path class="st1" d="M436.1,312.6v3.9c0,22.9,9.6,33.2,27.4,33.2c10.3,0,19.7-1.9,38.3-7.9l4.3,14c-23.6,10.3-35.1,13.5-48.8,13.5
		c-27.9,0-46.2-20.7-46.2-55.8c0-38.3,18.8-63.3,50.3-63.3c30.6,0,46,18.5,46,57.3v5.3H436.1z M463.3,266.6
		c-15.4,0-24.5,11.1-26.5,32.2l48.1-1.9C484.5,276.2,477.8,266.6,463.3,266.6"/>
	<path class="st1" d="M594.2,366.5v-10.3c-13.5,7.7-26.5,13-37.8,13c-24.5,0-39-22.4-39-59.2c0-36.3,16.6-59.9,41.6-59.9
		c12.3,0,23.8,6.5,33.9,12.5v-66.9h23.6v170.8H594.2z M593,276.7c-14.4-5.1-19-6.3-26-6.3c-15.9,0-24.5,13-24.5,38.5
		c0,27.4,7.9,39.9,23.6,39.9c6.5,0,13-1.4,27-6.7V276.7z"/>
	<path class="st1" d="M52.2,430c-3.7,0-6.7,0.6-10.7,2.4v33.2h-6.5v-41.2h6.3v3.6c4.1-3,7.1-4.1,10.8-4.1c0.7,0,1.1,0,2.1,0.2v5.9
		C53.2,430,52.7,430,52.2,430"/>
	<path class="st1" d="M80.7,465.7v-3.6c-5.2,3-8.9,4.5-12.7,4.5c-5.3,0-10.6-4.1-10.6-12.9c0-6.6,2.9-10.6,7.8-11.8
		c3.1-0.8,7.3-1,15.3-1v-1.7c0-6.8,0.4-9.9-7.7-9.9c-3.1,0-7.2,0.4-12.2,1.4l-0.7-4.5c6.5-1.9,11.4-2.8,15.7-2.8
		c4.4,0,7.4,1.1,9.2,3.4c1.7,2.2,2.2,4.7,2.2,12.2v26.5H80.7z M80.5,445.1c-13.3,1-16.3,2.9-16.3,8.8c0,4.6,2.2,7,5.6,7
		c3.8,0,10.7-3.1,10.7-3.1V445.1z"/>
	<path class="st1" d="M102.3,415.6c-2.4,0-4.3-1.9-4.3-4.3c0-2.3,1.9-4.2,4.2-4.2c2.3,0,4.2,1.8,4.2,4.2
		C106.5,413.6,104.6,415.6,102.3,415.6 M99,424.5h6.5v41.2H99V424.5z"/>
	<path class="st1" d="M126.8,466.5c-4.3,0-7.4-0.5-12.4-1.9l1.2-4.6c4,0.9,6.9,1.2,9.6,1.2c6,0,9.4-2.5,9.4-6.8c0-3.5-1.4-5-6.9-6.7
		c-7.2-2.3-13.1-4.6-13.1-12c0-7.5,5.2-12.1,13.6-12.1c3.1,0,6.8,0.7,11,2.2l-1.1,4.5c-3.8-0.9-7-1.3-9.3-1.3c-4.7,0-7.5,2.1-7.5,6
		c0,9.4,20.2,4.1,20.2,18.5C141.5,461.6,135.9,466.5,126.8,466.5"/>
	<path class="st1" d="M153.8,415.6c-2.4,0-4.3-1.9-4.3-4.3c0-2.3,1.9-4.2,4.2-4.2c2.3,0,4.2,1.8,4.2,4.2
		C157.9,413.6,156,415.6,153.8,415.6 M150.4,424.5h6.5v41.2h-6.5V424.5z"/>
	<path class="st1" d="M194.9,465.7v-25.3c0-6.1,0.4-10.9-6.9-10.9c-3.5,0-7.8,0.8-12.1,2.4v33.8h-6.5v-41.2h6.3v3.3
		c5.9-2.8,10.6-4.3,14.2-4.3c4.2,0,7.3,1.4,9.3,4c1.7,2.4,2.1,4.3,2.1,10.8v27.4H194.9z"/>
	<path class="st1" d="M239.9,480.7c-2.8,2.3-6.9,3.4-11.7,3.4c-3.6,0-7.3-0.5-14.2-1.9l0.6-4.2c5,0.6,7.9,0.8,10.8,0.8
		c5.9,0,9.8-1.4,11.4-4.3c1.2-2.1,1.5-4.3,1.5-10.9v-2.4c-5,2.9-9.7,4.6-13.5,4.6c-8.9,0-14.1-8.1-14.1-21c0-12.6,6.1-21.3,15-21.3
		c4.5,0,8.7,2.4,12.7,4.5v-3.6h6.3V463C244.8,474.2,244,477.5,239.9,480.7 M238.4,432.3c-6-2.3-7.9-2.8-10.8-2.8
		c-6.2,0-9.7,5.3-9.7,14.9c0,10.7,3.1,15.6,9.3,15.6c2.7,0,5.2-0.6,11.3-3V432.3z"/>
	<path class="st1" d="M288,466.5c-4.3,0-7.4-0.5-12.4-1.9l1.2-4.6c4,0.9,6.9,1.2,9.6,1.2c6,0,9.4-2.5,9.4-6.8c0-3.5-1.4-5-6.9-6.7
		c-7.2-2.3-13.1-4.6-13.1-12c0-7.5,5.2-12.1,13.5-12.1c3.1,0,6.8,0.7,11,2.2l-1.1,4.5c-3.8-0.9-7-1.3-9.3-1.3c-4.7,0-7.5,2.1-7.5,6
		c0,9.4,20.2,4.1,20.2,18.5C302.7,461.6,297.1,466.5,288,466.5"/>
	<path class="st1" d="M321.1,466.5c-3.4,0-5.9-1.4-7.3-4c-0.8-1.6-1-3.3-1-8.1v-25.2h-7v-3.6l7-0.8v-11.3h6.5v10.9h11.5v4.7h-11.5
		v22.2c0,7.2,0,7.3,0.6,8.3c0.6,1,1.7,1.4,3.2,1.4c2.2,0,4.4-0.4,7.9-1.5l1.2,4C327.5,465.8,324.4,466.5,321.1,466.5"/>
	<path class="st1" d="M360.8,465.7v-3.6c-5.2,3-8.9,4.5-12.7,4.5c-5.3,0-10.6-4.1-10.6-12.9c0-6.6,2.9-10.6,7.8-11.8
		c3.1-0.8,7.3-1,15.3-1v-1.7c0-6.8,0.4-9.9-7.7-9.9c-3.1,0-7.2,0.4-12.2,1.4l-0.7-4.5c6.5-1.9,11.4-2.8,15.7-2.8
		c4.4,0,7.4,1.1,9.2,3.4c1.7,2.2,2.2,4.7,2.2,12.2v26.5H360.8z M360.6,445.1c-13.3,1-16.3,2.9-16.3,8.8c0,4.6,2.2,7,5.6,7
		c3.8,0,10.8-3.1,10.8-3.1V445.1z"/>
	<path class="st1" d="M404.6,465.7v-25.3c0-6.1,0.3-10.9-6.9-10.9c-3.5,0-7.8,0.8-12.1,2.4v33.8h-6.5v-41.2h6.3v3.3
		c6-2.8,10.6-4.3,14.3-4.3c4.2,0,7.3,1.4,9.3,4c1.7,2.4,2.1,4.3,2.1,10.8v27.4H404.6z"/>
	<path class="st1" d="M448.5,465.7V462c-5.2,3-10.1,4.6-13.9,4.6c-8.9,0-14.1-8-14.1-21.4c0-12.9,6.1-21.7,15-21.7
		c4.5,0,8.8,2.4,12.8,4.5v-24.5h6.5v62.1H448.5z M448.3,432.3c-6.2-2.3-8.1-2.8-11.1-2.8c-6.2,0-9.7,5.3-9.7,15.2
		c0,11.1,3.1,16.1,9.3,16.1c2.8,0,5.6-0.6,11.5-3V432.3z"/>
	<path class="st1" d="M488,465.7v-3.6c-5.2,3-8.9,4.5-12.7,4.5c-5.3,0-10.6-4.1-10.6-12.9c0-6.6,2.9-10.6,7.8-11.8
		c3.1-0.8,7.3-1,15.3-1v-1.7c0-6.8,0.3-9.9-7.7-9.9c-3.1,0-7.2,0.4-12.2,1.4l-0.7-4.5c6.5-1.9,11.4-2.8,15.7-2.8
		c4.4,0,7.4,1.1,9.2,3.4c1.7,2.2,2.2,4.7,2.2,12.2v26.5H488z M487.8,445.1c-13.3,1-16.3,2.9-16.3,8.8c0,4.6,2.2,7,5.6,7
		c3.8,0,10.8-3.1,10.8-3.1V445.1z"/>
	<path class="st1" d="M523.5,430c-3.7,0-6.7,0.6-10.7,2.4v33.2h-6.5v-41.2h6.3v3.6c4.1-3,7.1-4.1,10.8-4.1c0.7,0,1.1,0,2.1,0.2v5.9
		C524.4,430,524,430,523.5,430"/>
	<path class="st1" d="M556.7,465.7V462c-5.2,3-10.1,4.6-13.9,4.6c-8.9,0-14.1-8-14.1-21.4c0-12.9,6.1-21.7,15-21.7
		c4.5,0,8.8,2.4,12.8,4.5v-24.5h6.5v62.1H556.7z M556.5,432.3c-6.2-2.3-8.1-2.8-11.1-2.8c-6.2,0-9.7,5.3-9.7,15.2
		c0,11.1,3.1,16.1,9.3,16.1c2.8,0,5.6-0.6,11.5-3V432.3z"/>
	<path class="st1" d="M584.3,466.5c-4.3,0-7.4-0.5-12.4-1.9l1.2-4.6c4,0.9,6.9,1.2,9.6,1.2c6,0,9.4-2.5,9.4-6.8c0-3.5-1.4-5-6.9-6.7
		c-7.2-2.3-13.1-4.6-13.1-12c0-7.5,5.2-12.1,13.6-12.1c3.1,0,6.8,0.7,11,2.2l-1.1,4.5c-3.8-0.9-7-1.3-9.3-1.3c-4.7,0-7.5,2.1-7.5,6
		c0,9.4,20.2,4.1,20.2,18.5C599,461.6,593.4,466.5,584.3,466.5"/>
	<path class="st1" d="M38.4,503c-2.4,0-4.3-1.9-4.3-4.3c0-2.3,1.9-4.2,4.2-4.2c2.3,0,4.2,1.8,4.2,4.2C42.5,501,40.6,503,38.4,503
		 M35.1,511.9h6.5v41.2h-6.5V511.9z"/>
	<path class="st1" d="M98.9,553.1v-25.3c0-6.3,0.4-11.2-5.8-11.2c-2.9,0-4.6,0.5-10.5,2.8c0.5,2,0.4,4.2,0.4,6.3v27.4h-6.5v-25.3
		c0-6.3,0.4-11.2-5.8-11.2c-2.4,0-4.2,0.4-10.1,2.6v33.8h-6.5v-41.2h6.3v3.3c6-2.9,9.8-4.3,12.9-4.3c4,0,7,1.6,8.4,4.7
		c3.4-1.7,10-4.7,14-4.7c9.4,0,9.6,7.1,9.6,14.8v27.4H98.9z"/>
	<path class="st1" d="M136.6,554.1c-4.5,0-8.9-2.4-12.8-4.6v21.2h-6.5v-58.7h6.3v3.6c5.2-2.9,10.1-4.5,13.9-4.5
		c8.9,0,14.1,8,14.1,21.4C151.7,545.3,145.6,554.1,136.6,554.1 M135.4,516.8c-2.8,0-5.6,0.7-11.5,2.9v25.5c6.1,2.3,8.1,2.9,11.1,2.9
		c6.2,0,9.7-5.3,9.7-15.2C144.7,521.8,141.6,516.8,135.4,516.8"/>
	<path class="st1" d="M178.8,517.4c-3.7,0-6.7,0.6-10.7,2.4v33.2h-6.5v-41.2h6.3v3.6c4.1-3,7.1-4.1,10.8-4.1c0.7,0,1.1,0,2.1,0.2
		v5.9C179.7,517.4,179.3,517.4,178.8,517.4"/>
	<path class="st1" d="M202.3,553.9c-11.6,0-18.3-7.9-18.3-21.4c0-13.3,6.8-21.5,18.3-21.5c11.8,0,18.3,7.6,18.3,21.5
		C220.5,546.2,214.1,553.9,202.3,553.9 M202.3,516.4c-7.7,0-11.3,5-11.3,16.1c0,11.4,3.6,16,11.3,16c7.9,0,11.3-4.6,11.3-15.9
		C213.6,521.4,210.3,516.4,202.3,516.4"/>
	<polygon class="st1" points="246.9,553.1 239.5,553.1 224.7,511.9 232,511.9 243.5,547.5 255.4,511.9 261.6,511.9 	"/>
	<path class="st1" d="M271.8,503c-2.4,0-4.3-1.9-4.3-4.3c0-2.3,1.9-4.2,4.2-4.2c2.3,0,4.2,1.8,4.2,4.2C275.9,501,274,503,271.8,503
		 M268.5,511.9h6.5v41.2h-6.5V511.9z"/>
	<path class="st1" d="M313,553.1v-25.3c0-6.1,0.4-10.9-6.9-10.9c-3.5,0-7.8,0.8-12.1,2.4v33.8h-6.5v-41.2h6.3v3.3
		c5.9-2.8,10.6-4.3,14.2-4.3c4.2,0,7.3,1.4,9.3,4c1.7,2.4,2.1,4.3,2.1,10.7v27.4H313z"/>
	<path class="st1" d="M358,568.1c-2.8,2.3-6.9,3.4-11.7,3.4c-3.6,0-7.3-0.5-14.2-1.9l0.6-4.2c5,0.6,7.9,0.8,10.8,0.8
		c5.9,0,9.8-1.4,11.4-4.3c1.2-2.1,1.5-4.3,1.5-10.9v-2.4c-5,2.9-9.7,4.6-13.5,4.6c-8.9,0-14.1-8.1-14.1-21c0-12.6,6.1-21.3,15-21.3
		c4.5,0,8.7,2.4,12.7,4.5v-3.6h6.3v38.5C362.9,561.7,362,564.9,358,568.1 M356.4,519.7c-6-2.3-7.9-2.8-10.8-2.8
		c-6.2,0-9.7,5.3-9.7,14.9c0,10.7,3.1,15.6,9.3,15.6c2.7,0,5.2-0.6,11.3-3V519.7z"/>
	<rect x="397.3" y="491" class="st1" width="6.5" height="62.1"/>
	<path class="st1" d="M419.7,503c-2.4,0-4.3-1.9-4.3-4.3c0-2.3,1.9-4.2,4.2-4.2c2.3,0,4.2,1.8,4.2,4.2C423.8,501,422,503,419.7,503
		 M416.4,511.9h6.5v41.2h-6.5V511.9z"/>
	<polygon class="st1" points="451.9,553.1 444.4,553.1 429.7,511.9 436.9,511.9 448.5,547.5 460.4,511.9 466.6,511.9 	"/>
	<path class="st1" d="M477.7,533.1v1.5c0,9.1,3.8,13.5,10.7,13.5c3.9,0,7.3-0.8,14.2-3.1l1.2,4c-8.6,3.9-12.2,5-17.1,5
		c-9.8,0-16.1-7.6-16.1-19.9c0-14.3,6.6-23.2,17.6-23.2c10.4,0,15.8,6.6,15.8,19.9v2.2H477.7z M489,516.1c-6.2,0-10.2,4.4-10.9,12.7
		l19.4-0.7C497.5,519.8,494.7,516.1,489,516.1"/>
	<path class="st1" d="M522.3,553.9c-4.3,0-7.4-0.5-12.4-1.9l1.2-4.6c4,0.9,6.9,1.2,9.6,1.2c6,0,9.4-2.4,9.4-6.8c0-3.5-1.4-5-6.9-6.7
		c-7.2-2.3-13.1-4.6-13.1-12c0-7.5,5.2-12.1,13.6-12.1c3.1,0,6.8,0.7,11,2.2l-1.1,4.5c-3.8-0.9-7-1.3-9.3-1.3c-4.7,0-7.5,2.1-7.5,6
		c0,9.4,20.2,4.1,20.2,18.5C537,549,531.4,553.9,522.3,553.9"/>
</g>
</svg>
