<?xml version="1.0" encoding="UTF-8"?>
<svg
        xmlns="http://www.w3.org/2000/svg"
        xmlns:xlink="http://www.w3.org/1999/xlink"
        width="64.65pt"
        height="39.44pt"
        viewBox="0 0 94.65 69.44"
        version="1.1"
      >
        <defs>
          <clipPath id="clip1">
            <path
              d="M 31 59 L 38 59 L 38 69.441406 L 31 69.441406 Z M 31 59 "
            />
          </clipPath>
          <clipPath id="clip2">
            <path
              d="M 78 19 L 94.648438 19 L 94.648438 48 L 78 48 Z M 78 19 "
            />
          </clipPath>
        </defs>
        <g id="surface1">
          <path
            style="
              stroke: none;
              fill-rule: nonzero;
              fill: #fafafa;
              fill-opacity: 1;
            "
            d="M 15.28125 60.894531 L 18.132813 60.894531 C 18.738281 60.894531 19.210938 60.832031 19.554688 60.707031 C 19.894531 60.582031 20.15625 60.382813 20.332031 60.105469 C 20.511719 59.828125 20.597656 59.53125 20.597656 59.207031 C 20.597656 58.734375 20.425781 58.34375 20.085938 58.039063 C 19.738281 57.730469 19.195313 57.578125 18.453125 57.578125 L 15.28125 57.578125 Z M 13.957031 66.492188 L 13.957031 56.472656 L 18.398438 56.472656 C 19.292969 56.472656 19.96875 56.5625 20.433594 56.742188 C 20.902344 56.921875 21.273438 57.238281 21.550781 57.695313 C 21.828125 58.152344 21.96875 58.65625 21.96875 59.207031 C 21.96875 59.917969 21.738281 60.515625 21.277344 61.003906 C 20.816406 61.492188 20.105469 61.800781 19.144531 61.933594 C 19.496094 62.101563 19.761719 62.269531 19.945313 62.433594 C 20.332031 62.789063 20.699219 63.234375 21.042969 63.765625 L 22.785156 66.492188 L 21.117188 66.492188 L 19.792969 64.410156 C 19.40625 63.808594 19.085938 63.347656 18.835938 63.027344 C 18.585938 62.707031 18.359375 62.484375 18.164063 62.359375 C 17.964844 62.230469 17.761719 62.140625 17.558594 62.089844 C 17.40625 62.058594 17.160156 62.042969 16.820313 62.042969 L 15.28125 62.042969 L 15.28125 66.492188 L 13.957031 66.492188 "
          />
          <path
            style="
              stroke: none;
              fill-rule: nonzero;
              fill: #fafafa;
              fill-opacity: 1;
            "
            d="M 24.816406 62.167969 L 28.871094 62.167969 C 28.816406 61.554688 28.660156 61.097656 28.40625 60.792969 C 28.015625 60.320313 27.507813 60.082031 26.882813 60.082031 C 26.316406 60.082031 25.84375 60.269531 25.457031 60.648438 C 25.070313 61.027344 24.859375 61.53125 24.816406 62.167969 Z M 28.855469 64.15625 L 30.128906 64.3125 C 29.929688 65.054688 29.558594 65.632813 29.015625 66.042969 C 28.472656 66.453125 27.78125 66.65625 26.9375 66.65625 C 25.875 66.65625 25.03125 66.332031 24.410156 65.675781 C 23.789063 65.023438 23.476563 64.105469 23.476563 62.925781 C 23.476563 61.703125 23.792969 60.757813 24.421875 60.082031 C 25.050781 59.40625 25.867188 59.070313 26.867188 59.070313 C 27.839844 59.070313 28.632813 59.398438 29.246094 60.0625 C 29.863281 60.722656 30.167969 61.652344 30.167969 62.851563 C 30.167969 62.921875 30.167969 63.03125 30.164063 63.179688 L 24.75 63.179688 C 24.792969 63.976563 25.019531 64.585938 25.425781 65.011719 C 25.832031 65.433594 26.339844 65.644531 26.945313 65.644531 C 27.394531 65.644531 27.78125 65.527344 28.097656 65.289063 C 28.417969 65.054688 28.671875 64.675781 28.855469 64.15625 "
          />
          <g clip-path="url(#clip1)" clip-rule="nonzero">
            <path
              style="
                stroke: none;
                fill-rule: nonzero;
                fill: #fafafa;
                fill-opacity: 1;
              "
              d="M 32.46875 62.734375 C 32.46875 63.6875 32.65625 64.382813 33.035156 64.820313 C 33.414063 65.257813 33.886719 65.476563 34.457031 65.476563 C 35.023438 65.476563 35.496094 65.257813 35.878906 64.820313 C 36.261719 64.386719 36.453125 63.703125 36.453125 62.773438 C 36.453125 61.886719 36.253906 61.214844 35.859375 60.765625 C 35.46875 60.3125 34.992188 60.089844 34.433594 60.089844 C 33.890625 60.089844 33.421875 60.308594 33.039063 60.753906 C 32.65625 61.199219 32.46875 61.859375 32.46875 62.734375 Z M 31.449219 67.09375 L 32.644531 67.273438 C 32.695313 67.640625 32.835938 67.910156 33.0625 68.078125 C 33.367188 68.308594 33.785156 68.421875 34.3125 68.421875 C 34.882813 68.421875 35.324219 68.308594 35.632813 68.078125 C 35.941406 67.851563 36.152344 67.53125 36.261719 67.121094 C 36.324219 66.871094 36.355469 66.34375 36.347656 65.542969 C 35.8125 66.175781 35.144531 66.492188 34.339844 66.492188 C 33.34375 66.492188 32.570313 66.132813 32.023438 65.414063 C 31.476563 64.695313 31.203125 63.828125 31.203125 62.824219 C 31.203125 62.128906 31.328125 61.492188 31.578125 60.90625 C 31.828125 60.320313 32.191406 59.867188 32.667969 59.546875 C 33.144531 59.230469 33.703125 59.070313 34.347656 59.070313 C 35.203125 59.070313 35.910156 59.417969 36.464844 60.109375 L 36.464844 59.234375 L 37.601563 59.234375 L 37.601563 65.507813 C 37.601563 66.640625 37.484375 67.441406 37.257813 67.910156 C 37.027344 68.382813 36.660156 68.757813 36.160156 69.03125 C 35.664063 69.304688 35.046875 69.441406 34.320313 69.441406 C 33.453125 69.441406 32.753906 69.246094 32.21875 68.855469 C 31.6875 68.464844 31.429688 67.878906 31.449219 67.09375 "
            />
          </g>
          <path
            style="
              stroke: none;
              fill-rule: nonzero;
              fill: #fafafa;
              fill-opacity: 1;
            "
            d="M 39.46875 66.492188 L 39.46875 59.234375 L 40.699219 59.234375 L 40.699219 66.492188 Z M 39.46875 57.886719 L 39.46875 56.472656 L 40.699219 56.472656 L 40.699219 57.886719 L 39.46875 57.886719 "
          />
          <path
            style="
              stroke: none;
              fill-rule: nonzero;
              fill: #fafafa;
              fill-opacity: 1;
            "
            d="M 42.078125 64.328125 L 43.292969 64.136719 C 43.363281 64.621094 43.554688 64.996094 43.867188 65.257813 C 44.175781 65.515625 44.613281 65.644531 45.175781 65.644531 C 45.738281 65.644531 46.160156 65.53125 46.433594 65.300781 C 46.707031 65.070313 46.84375 64.800781 46.84375 64.492188 C 46.84375 64.210938 46.722656 63.992188 46.480469 63.835938 C 46.3125 63.726563 45.894531 63.585938 45.222656 63.417969 C 44.320313 63.191406 43.695313 62.992188 43.347656 62.824219 C 42.996094 62.660156 42.734375 62.429688 42.554688 62.136719 C 42.371094 61.839844 42.28125 61.515625 42.28125 61.160156 C 42.28125 60.839844 42.355469 60.539063 42.507813 60.261719 C 42.652344 59.988281 42.855469 59.757813 43.109375 59.574219 C 43.300781 59.433594 43.5625 59.316406 43.894531 59.214844 C 44.222656 59.117188 44.578125 59.070313 44.957031 59.070313 C 45.527344 59.070313 46.027344 59.152344 46.457031 59.316406 C 46.886719 59.480469 47.207031 59.703125 47.410156 59.980469 C 47.613281 60.261719 47.757813 60.636719 47.835938 61.105469 L 46.632813 61.269531 C 46.578125 60.898438 46.417969 60.605469 46.15625 60.394531 C 45.894531 60.1875 45.523438 60.082031 45.042969 60.082031 C 44.480469 60.082031 44.078125 60.175781 43.835938 60.363281 C 43.59375 60.546875 43.472656 60.765625 43.472656 61.019531 C 43.472656 61.175781 43.523438 61.320313 43.621094 61.449219 C 43.722656 61.582031 43.882813 61.691406 44.09375 61.777344 C 44.21875 61.824219 44.582031 61.925781 45.179688 62.089844 C 46.050781 62.324219 46.660156 62.515625 47.003906 62.660156 C 47.347656 62.808594 47.617188 63.027344 47.8125 63.308594 C 48.011719 63.589844 48.105469 63.941406 48.105469 64.359375 C 48.105469 64.769531 47.988281 65.15625 47.75 65.519531 C 47.511719 65.882813 47.164063 66.160156 46.714844 66.359375 C 46.261719 66.558594 45.753906 66.65625 45.179688 66.65625 C 44.238281 66.65625 43.519531 66.460938 43.027344 66.070313 C 42.53125 65.679688 42.214844 65.097656 42.078125 64.328125 "
          />
          <path
            style="
              stroke: none;
              fill-rule: nonzero;
              fill: #fafafa;
              fill-opacity: 1;
            "
            d="M 52.257813 65.394531 L 52.433594 66.480469 C 52.089844 66.554688 51.78125 66.589844 51.507813 66.589844 C 51.058594 66.589844 50.714844 66.519531 50.46875 66.378906 C 50.21875 66.234375 50.046875 66.050781 49.949219 65.820313 C 49.84375 65.589844 49.796875 65.105469 49.796875 64.367188 L 49.796875 60.191406 L 48.894531 60.191406 L 48.894531 59.234375 L 49.796875 59.234375 L 49.796875 57.4375 L 51.019531 56.699219 L 51.019531 59.234375 L 52.257813 59.234375 L 52.257813 60.191406 L 51.019531 60.191406 L 51.019531 64.4375 C 51.019531 64.785156 51.039063 65.011719 51.085938 65.113281 C 51.128906 65.214844 51.199219 65.292969 51.296875 65.351563 C 51.394531 65.410156 51.535156 65.441406 51.71875 65.441406 C 51.851563 65.441406 52.03125 65.425781 52.257813 65.394531 "
          />
          <path
            style="
              stroke: none;
              fill-rule: nonzero;
              fill: #fafafa;
              fill-opacity: 1;
            "
            d="M 54.390625 62.167969 L 58.445313 62.167969 C 58.390625 61.554688 58.234375 61.097656 57.976563 60.792969 C 57.585938 60.320313 57.078125 60.082031 56.453125 60.082031 C 55.890625 60.082031 55.414063 60.269531 55.03125 60.648438 C 54.644531 61.027344 54.429688 61.53125 54.390625 62.167969 Z M 58.429688 64.15625 L 59.703125 64.3125 C 59.5 65.054688 59.128906 65.632813 58.585938 66.042969 C 58.042969 66.453125 57.351563 66.65625 56.507813 66.65625 C 55.449219 66.65625 54.605469 66.332031 53.980469 65.675781 C 53.359375 65.023438 53.050781 64.105469 53.050781 62.925781 C 53.050781 61.703125 53.363281 60.757813 53.992188 60.082031 C 54.621094 59.40625 55.4375 59.070313 56.441406 59.070313 C 57.410156 59.070313 58.203125 59.398438 58.820313 60.0625 C 59.433594 60.722656 59.742188 61.652344 59.742188 62.851563 C 59.742188 62.921875 59.738281 63.03125 59.734375 63.179688 L 54.320313 63.179688 C 54.367188 63.976563 54.59375 64.585938 54.996094 65.011719 C 55.402344 65.433594 55.910156 65.644531 56.515625 65.644531 C 56.96875 65.644531 57.351563 65.527344 57.671875 65.289063 C 57.988281 65.054688 58.242188 64.675781 58.429688 64.15625 "
          />
          <path
            style="
              stroke: none;
              fill-rule: nonzero;
              fill: #fafafa;
              fill-opacity: 1;
            "
            d="M 61.234375 66.492188 L 61.234375 59.234375 L 62.339844 59.234375 L 62.339844 60.335938 C 62.621094 59.820313 62.886719 59.480469 63.121094 59.316406 C 63.363281 59.152344 63.625 59.070313 63.914063 59.070313 C 64.328125 59.070313 64.75 59.203125 65.175781 59.464844 L 64.753906 60.609375 C 64.453125 60.429688 64.152344 60.339844 63.851563 60.339844 C 63.582031 60.339844 63.339844 60.421875 63.128906 60.582031 C 62.914063 60.746094 62.761719 60.96875 62.667969 61.257813 C 62.53125 61.695313 62.464844 62.171875 62.464844 62.691406 L 62.464844 66.492188 L 61.234375 66.492188 "
          />
          <path
            style="
              stroke: none;
              fill-rule: nonzero;
              fill: #fafafa;
              fill-opacity: 1;
            "
            d="M 66.839844 62.167969 L 70.894531 62.167969 C 70.839844 61.554688 70.683594 61.097656 70.425781 60.792969 C 70.035156 60.320313 69.527344 60.082031 68.902344 60.082031 C 68.339844 60.082031 67.863281 60.269531 67.476563 60.648438 C 67.09375 61.027344 66.878906 61.53125 66.839844 62.167969 Z M 70.878906 64.15625 L 72.152344 64.3125 C 71.949219 65.054688 71.578125 65.632813 71.035156 66.042969 C 70.492188 66.453125 69.800781 66.65625 68.957031 66.65625 C 67.898438 66.65625 67.054688 66.332031 66.429688 65.675781 C 65.808594 65.023438 65.5 64.105469 65.5 62.925781 C 65.5 61.703125 65.8125 60.757813 66.441406 60.082031 C 67.070313 59.40625 67.886719 59.070313 68.890625 59.070313 C 69.859375 59.070313 70.652344 59.398438 71.269531 60.0625 C 71.882813 60.722656 72.191406 61.652344 72.191406 62.851563 C 72.191406 62.921875 72.191406 63.03125 72.183594 63.179688 L 66.769531 63.179688 C 66.816406 63.976563 67.042969 64.585938 67.449219 65.011719 C 67.851563 65.433594 68.359375 65.644531 68.964844 65.644531 C 69.414063 65.644531 69.800781 65.527344 70.121094 65.289063 C 70.441406 65.054688 70.691406 64.675781 70.878906 64.15625 "
          />
          <path
            style="
              stroke: none;
              fill-rule: nonzero;
              fill: #fafafa;
              fill-opacity: 1;
            "
            d="M 74.515625 62.871094 C 74.515625 63.800781 74.710938 64.496094 75.101563 64.957031 C 75.492188 65.414063 75.957031 65.644531 76.488281 65.644531 C 77.027344 65.644531 77.484375 65.425781 77.859375 64.984375 C 78.234375 64.546875 78.425781 63.875 78.425781 62.972656 C 78.425781 61.980469 78.234375 61.25 77.851563 60.785156 C 77.46875 60.320313 76.996094 60.089844 76.433594 60.089844 C 75.890625 60.089844 75.429688 60.3125 75.066406 60.757813 C 74.699219 61.203125 74.515625 61.910156 74.515625 62.871094 Z M 78.40625 66.492188 L 78.40625 65.578125 C 77.945313 66.296875 77.269531 66.65625 76.375 66.65625 C 75.792969 66.65625 75.265625 66.5 74.777344 66.179688 C 74.292969 65.859375 73.914063 65.414063 73.652344 64.84375 C 73.382813 64.269531 73.25 63.613281 73.25 62.871094 C 73.25 62.144531 73.371094 61.488281 73.613281 60.898438 C 73.851563 60.308594 74.214844 59.855469 74.699219 59.542969 C 75.183594 59.226563 75.722656 59.070313 76.320313 59.070313 C 76.757813 59.070313 77.148438 59.160156 77.488281 59.347656 C 77.832031 59.53125 78.109375 59.773438 78.324219 60.066406 L 78.324219 56.472656 L 79.546875 56.472656 L 79.546875 66.492188 L 78.40625 66.492188 "
          />
          <path
            style="
              stroke: none;
              fill-rule: evenodd;
              fill: rgb(0%, 61.599731%, 74.899292%);
              fill-opacity: 1;
            "
            d="M 77.496094 2.058594 C 77.496094 0.925781 78.410156 0.00390625 79.542969 0.00390625 C 80.683594 0.00390625 81.597656 0.925781 81.597656 2.058594 L 81.597656 3.878906 C 81.597656 5.015625 80.683594 5.933594 79.542969 5.933594 C 78.410156 5.933594 77.496094 5.015625 77.496094 3.878906 L 77.496094 2.058594 "
          />
          <path
            style="
              stroke: none;
              fill-rule: evenodd;
              fill: rgb(0%, 61.599731%, 74.899292%);
              fill-opacity: 1;
            "
            d="M 91.558594 7.871094 C 91.210938 6.785156 90.050781 6.199219 88.972656 6.554688 L 79.546875 9.632813 L 70.121094 6.554688 C 69.042969 6.199219 67.890625 6.789063 67.535156 7.871094 C 67.183594 8.949219 67.773438 10.109375 68.851563 10.457031 L 76.226563 12.863281 L 71.6875 19.113281 C 71.019531 20.03125 71.226563 21.3125 72.140625 21.976563 C 73.0625 22.644531 74.34375 22.4375 75.007813 21.527344 L 79.558594 15.265625 L 84.109375 21.523438 C 84.777344 22.4375 86.058594 22.644531 86.976563 21.976563 C 87.894531 21.3125 88.09375 20.03125 87.429688 19.113281 L 82.894531 12.855469 L 90.246094 10.453125 C 91.324219 10.109375 91.914063 8.949219 91.558594 7.871094 "
          />
          <path
            style="
              stroke: none;
              fill-rule: evenodd;
              fill: rgb(0%, 61.599731%, 74.899292%);
              fill-opacity: 1;
            "
            d="M 57.34375 6.902344 C 57.34375 6.039063 58.042969 5.335938 58.90625 5.335938 C 59.773438 5.335938 60.46875 6.039063 60.46875 6.902344 L 60.46875 8.285156 C 60.46875 9.152344 59.773438 9.851563 58.90625 9.851563 C 58.042969 9.851563 57.34375 9.152344 57.34375 8.289063 L 57.34375 6.902344 "
          />
          <path
            style="
              stroke: none;
              fill-rule: evenodd;
              fill: rgb(0%, 61.599731%, 74.899292%);
              fill-opacity: 1;
            "
            d="M 68.054688 11.328125 C 67.789063 10.503906 66.910156 10.054688 66.089844 10.328125 L 58.910156 12.667969 L 51.730469 10.324219 C 50.910156 10.054688 50.03125 10.503906 49.761719 11.328125 C 49.492188 12.148438 49.945313 13.035156 50.765625 13.296875 L 56.382813 15.132813 L 52.921875 19.890625 C 52.414063 20.589844 52.574219 21.566406 53.269531 22.070313 C 53.96875 22.578125 54.945313 22.421875 55.453125 21.726563 L 58.914063 16.960938 L 62.382813 21.726563 C 62.890625 22.421875 63.867188 22.578125 64.566406 22.070313 C 65.265625 21.566406 65.417969 20.589844 64.910156 19.890625 L 61.460938 15.125 L 67.058594 13.296875 C 67.875 13.03125 68.328125 12.148438 68.054688 11.328125 "
          />
          <path
            style="
              stroke: none;
              fill-rule: evenodd;
              fill: rgb(0%, 61.599731%, 74.899292%);
              fill-opacity: 1;
            "
            d="M 42.335938 10.832031 C 42.335938 10.1875 42.855469 9.664063 43.496094 9.664063 C 44.148438 9.664063 44.664063 10.1875 44.664063 10.832031 L 44.667969 11.867188 C 44.667969 12.511719 44.148438 13.03125 43.496094 13.03125 C 42.855469 13.03125 42.335938 12.511719 42.335938 11.867188 L 42.335938 10.832031 "
          />
          <path
            style="
              stroke: none;
              fill-rule: evenodd;
              fill: rgb(0%, 61.599731%, 74.899292%);
              fill-opacity: 1;
            "
            d="M 50.328125 14.132813 C 50.128906 13.515625 49.46875 13.183594 48.855469 13.386719 L 43.503906 15.132813 L 38.148438 13.386719 C 37.535156 13.183594 36.878906 13.519531 36.679688 14.132813 C 36.480469 14.746094 36.8125 15.40625 37.421875 15.601563 L 41.613281 16.96875 L 39.035156 20.519531 C 38.65625 21.039063 38.777344 21.769531 39.296875 22.148438 C 39.820313 22.527344 40.546875 22.410156 40.921875 21.890625 L 43.507813 18.335938 L 46.09375 21.890625 C 46.472656 22.410156 47.203125 22.527344 47.722656 22.148438 C 48.246094 21.769531 48.355469 21.042969 47.980469 20.519531 L 45.402344 16.964844 L 49.582031 15.601563 C 50.191406 15.40625 50.527344 14.746094 50.328125 14.132813 "
          />
          <path
            style="
              stroke: none;
              fill-rule: evenodd;
              fill: #fafafa;
              fill-opacity: 1;
            "
            d="M 10.902344 47.683594 C 3.8125 47.683594 0 43.027344 0 34.433594 C 0 25.921875 3.96875 21.183594 10.976563 21.183594 C 17.953125 21.183594 21.839844 25.960938 21.839844 34.472656 C 21.839844 43.027344 17.988281 47.6875 10.902344 47.683594 Z M 11.019531 24.265625 C 6.550781 24.265625 4.238281 27.695313 4.238281 34.433594 C 4.238281 37.746094 4.894531 40.789063 6.007813 42.371094 C 7.011719 43.832031 8.820313 44.640625 10.976563 44.640625 C 15.449219 44.640625 17.601563 41.371094 17.601563 34.472656 C 17.601563 27.617188 15.484375 24.265625 11.019531 24.265625 "
          />
          <path
            style="
              stroke: none;
              fill-rule: evenodd;
              fill: #fafafa;
              fill-opacity: 1;
            "
            d="M 35.863281 22.378906 C 35.515625 22.300781 34.285156 22.148438 32.703125 22.148438 C 30.738281 22.148438 30.238281 22.917969 30.238281 25.496094 L 30.238281 29.003906 L 35.324219 29.003906 L 35.324219 31.585938 L 30.238281 31.585938 L 30.238281 47.222656 L 26.503906 47.222656 L 26.503906 31.585938 L 23.304688 31.585938 L 23.304688 29.386719 L 26.503906 28.964844 L 26.503906 25.960938 C 26.503906 23.261719 26.695313 22.300781 27.386719 21.300781 C 28.277344 19.988281 29.660156 19.335938 31.585938 19.335938 C 33.515625 19.332031 35.667969 19.875 36.246094 20.027344 L 35.863281 22.378906 "
          />
          <path
            style="
              stroke: none;
              fill-rule: evenodd;
              fill: #fafafa;
              fill-opacity: 1;
            "
            d="M 41.796875 47.609375 C 39.945313 47.609375 38.328125 47.339844 36.015625 46.761719 L 36.632813 44.21875 C 38.480469 44.640625 39.867188 44.796875 41.140625 44.796875 C 43.683594 44.796875 44.992188 43.871094 44.992188 42.175781 C 44.992188 40.753906 44.453125 40.175781 41.949219 39.480469 C 38.597656 38.554688 36.171875 37.441406 36.171875 34.164063 C 36.171875 30.660156 38.597656 28.617188 42.601563 28.617188 C 44.105469 28.617188 45.878906 28.925781 47.882813 29.582031 L 47.34375 31.96875 C 46.070313 31.699219 44.414063 31.390625 43.066406 31.390625 C 41.101563 31.390625 39.945313 32.199219 39.945313 33.742188 C 39.945313 37.59375 48.84375 35.089844 48.84375 41.601563 C 48.84375 45.414063 46.261719 47.609375 41.796875 47.609375 "
          />
          <path
            style="
              stroke: none;
              fill-rule: evenodd;
              fill: #fafafa;
              fill-opacity: 1;
            "
            d="M 56.394531 47.648438 C 54.621094 47.648438 53.3125 46.917969 52.65625 45.644531 C 52.234375 44.835938 52.117188 43.910156 52.117188 41.445313 L 52.117188 31.585938 L 49.035156 31.585938 L 49.035156 29.503906 L 52.117188 29.117188 L 52.117188 24.074219 L 55.894531 24.074219 L 55.894531 29.003906 L 60.902344 29.003906 L 60.902344 31.585938 L 55.894531 31.585938 L 55.894531 40.367188 C 55.894531 43.449219 55.929688 43.527344 56.203125 43.988281 C 56.46875 44.449219 57.011719 44.683594 57.820313 44.683594 C 58.707031 44.683594 59.550781 44.527344 61.015625 44.140625 L 61.59375 46.453125 C 59.398438 47.300781 57.898438 47.648438 56.394531 47.648438 "
          />
          <path
            style="
              stroke: none;
              fill-rule: evenodd;
              fill: #fafafa;
              fill-opacity: 1;
            "
            d="M 65.753906 38.59375 L 65.753906 39.210938 C 65.753906 42.871094 67.292969 44.527344 70.144531 44.527344 C 71.800781 44.527344 73.304688 44.21875 76.269531 43.257813 L 76.964844 45.488281 C 73.1875 47.144531 71.339844 47.648438 69.144531 47.648438 C 64.675781 47.648438 61.746094 44.335938 61.746094 38.710938 C 61.746094 32.585938 64.753906 28.578125 69.796875 28.578125 C 74.691406 28.578125 77.15625 31.546875 77.15625 37.746094 L 77.15625 38.59375 Z M 70.105469 31.238281 C 67.644531 31.238281 66.175781 33.011719 65.871094 36.402344 L 73.574219 36.089844 C 73.496094 32.777344 72.417969 31.238281 70.105469 31.238281 "
          />
          <g clip-path="url(#clip2)" clip-rule="nonzero">
            <path
              style="
                stroke: none;
                fill-rule: evenodd;
                fill: #fafafa;
                fill-opacity: 1;
              "
              d="M 91.0625 47.222656 L 91.0625 45.566406 C 88.90625 46.800781 86.824219 47.648438 85.015625 47.648438 C 81.085938 47.648438 78.773438 44.066406 78.773438 38.171875 C 78.773438 32.355469 81.433594 28.578125 85.441406 28.578125 C 87.402344 28.578125 89.253906 29.621094 90.871094 30.582031 L 90.871094 19.871094 L 94.644531 19.871094 L 94.644531 47.222656 Z M 90.871094 32.855469 C 88.558594 32.046875 87.824219 31.855469 86.710938 31.855469 C 84.167969 31.855469 82.78125 33.933594 82.78125 38.015625 C 82.78125 42.410156 84.050781 44.410156 86.554688 44.410156 C 87.59375 44.410156 88.636719 44.179688 90.871094 43.332031 L 90.871094 32.855469 "
            />
          </g>
        </g>
      </svg>
